<?xml version="1.0" encoding="utf-8"?>
<!-- Generator: Adobe Illustrator 24.0.0, SVG Export Plug-In . SVG Version: 6.00 Build 0)  -->
<svg version="1.1" id="Layer_1" xmlns="http://www.w3.org/2000/svg" xmlns:xlink="http://www.w3.org/1999/xlink" x="0px" y="0px"
	 viewBox="0 0 1000 1000" style="enable-background:new 0 0 1000 1000;" xml:space="preserve">
<style type="text/css">
	.st0{fill:#FFFFFF;}
	.st1{font-family:'MyriadPro-Regular';}
	.st2{font-size:22.5376px;}
</style>
<g>
	<circle class="st0" cx="260.27" cy="286.89" r="12.77"/>
	
		<ellipse transform="matrix(0.7071 -0.7071 0.7071 0.7071 -83.3421 190.5047)" class="st0" cx="188.29" cy="195.86" rx="39.28" ry="39.28"/>
	<g>
		<path class="st0" d="M224.27,283.07c-23.39,0-42.52-18.56-43.44-41.73c-11.49-1.87-21.54-7.98-28.52-16.68
			c-1,4.82-1.53,9.82-1.53,14.93c0,40.52,32.97,73.49,73.49,73.49c8.28,0,15-6.72,15-15C239.27,289.79,232.55,283.07,224.27,283.07z
			"/>
		<path class="st0" d="M234.39,195.86c0,0.48-0.02,0.96-0.04,1.44c19.13,4.56,33.41,21.79,33.41,42.29c0,11.45-4.41,22.22-12.4,30.4
			c1.9-0.74,3.95-1.16,6.11-1.16c9.32,0,16.88,7.56,16.88,16.88c0,1.46-0.2,2.86-0.55,4.21c12.88-13.68,19.97-31.45,19.97-50.33
			c0-40.52-32.97-73.49-73.49-73.49c-0.26,0-0.51,0.02-0.77,0.02C230.29,174.15,234.39,184.52,234.39,195.86z"/>
	</g>
</g>
<text transform="matrix(1 0 0 1 316.8727 302.5392)" class="st0 st1 st2">office management information service</text>
<g>
	<path class="st0" d="M395.2,163.07c-7.01-4.33-15.02-6.5-24.04-6.5c-9.02,0-17.03,2.17-24.04,6.5
		c-7.01,4.33-12.43,10.55-16.27,18.65c-3.84,8.1-5.76,17.47-5.76,28.12v5.35c0.05,10.4,2.01,19.6,5.87,27.6
		c3.86,8,9.31,14.15,16.35,18.46c7.03,4.31,15.03,6.46,24,6.46c9.06,0,17.1-2.18,24.11-6.54c7.01-4.36,12.4-10.55,16.16-18.58
		c3.76-8.02,5.65-17.36,5.65-28.01v-4.83c0-10.6-1.92-19.95-5.76-28.05C407.64,173.62,402.21,167.41,395.2,163.07z M394.65,214.97
		c-0.05,11.25-2.08,19.8-6.09,25.67c-4.01,5.87-9.76,8.8-17.24,8.8c-7.63,0-13.47-3.05-17.53-9.14c-4.06-6.09-6.09-14.66-6.09-25.71
		v-5.28c0.05-11.24,2.1-19.78,6.17-25.6c4.06-5.82,9.83-8.73,17.31-8.73c7.53,0,13.32,2.95,17.39,8.84
		c4.06,5.9,6.09,14.51,6.09,25.86V214.97z"/>
	<polygon class="st0" points="490.35,236.52 462.56,158.06 433.43,158.06 433.43,266.24 455.72,266.24 455.72,236.67 453.49,185.7 
		482.62,266.24 497.92,266.24 527.12,185.62 524.9,236.67 524.9,266.24 547.26,266.24 547.26,158.06 517.99,158.06 	"/>
	<rect x="568.14" y="181.33" class="st0" width="22.29" height="84.9"/>
	<rect x="568.14" y="158.06" class="st0" width="22.29" height="19.01"/>
	<path class="st0" d="M653.14,202.41c-6.89-2.08-12.1-4.31-15.64-6.69c-3.54-2.38-5.31-5.32-5.31-8.84c0-3.76,1.51-6.8,4.53-9.1
		c3.02-2.3,7.26-3.46,12.71-3.46c5.65,0,10.03,1.37,13.15,4.12c3.12,2.75,4.68,6.6,4.68,11.55h22.29c0-6.49-1.67-12.28-5.02-17.39
		c-3.34-5.1-8.04-9.05-14.08-11.85c-6.04-2.8-12.93-4.2-20.66-4.2c-7.68,0-14.6,1.29-20.77,3.86c-6.17,2.58-10.9,6.16-14.19,10.74
		c-3.29,4.58-4.94,9.8-4.94,15.64c0,11.25,6.14,20.19,18.43,26.82c4.51,2.43,10.63,4.89,18.35,7.39c7.73,2.5,13.08,4.88,16.05,7.13
		c2.97,2.25,4.46,5.49,4.46,9.7c0,3.86-1.49,6.87-4.46,9.03c-2.97,2.16-7.11,3.23-12.41,3.23c-14.27,0-21.4-5.97-21.4-17.91h-22.36
		c0,6.98,1.79,13.13,5.39,18.43c3.59,5.3,8.8,9.47,15.64,12.52c6.83,3.05,14.41,4.57,22.74,4.57c11.99,0,21.52-2.66,28.61-7.99
		c7.08-5.32,10.63-12.67,10.63-22.03c0-8.42-2.9-15.46-8.69-21.1C675.06,210.96,665.82,206.23,653.14,202.41z"/>
</g>
</svg>
